<svg xmlns="http://www.w3.org/2000/svg" viewBox="0 0 230 150" width="230" height="150" font-family="Manrope, Arial, sans-serif">
  <rect x="0" y="0" width="230" height="150" rx="10" fill="#12121a"></rect>
  <rect x="0.5" y="0.5" width="229" height="149" rx="10" fill="none" stroke="#262631"></rect>
  <polyline points="14,120 55,60 96,95 140,45 185,110 216,70" fill="none" stroke="#6366f1" stroke-width="2" stroke-dasharray="5 4" opacity="0.7"></polyline>
  <polyline points="14,70 60,100 110,55 150,115 200,60" fill="none" stroke="#ef4444" stroke-width="2" stroke-dasharray="3 3" opacity="0.6"></polyline>
  <g>
    <rect x="16" y="98" width="12" height="34" rx="2" fill="#ef4444"></rect>
    <rect x="46" y="70" width="12" height="62" rx="2" fill="#22c55e"></rect>
    <rect x="76" y="110" width="12" height="22" rx="2" fill="#ef4444"></rect>
    <rect x="106" y="84" width="12" height="48" rx="2" fill="#3a3a46"></rect>
    <rect x="136" y="62" width="12" height="70" rx="2" fill="#22c55e"></rect>
    <rect x="166" y="102" width="12" height="30" rx="2" fill="#ef4444"></rect>
    <rect x="196" y="76" width="12" height="56" rx="2" fill="#3a3a46"></rect>
  </g>
  <circle cx="203" cy="25" r="13" fill="#ef4444" fill-opacity="0.18"></circle>
  <text x="203" y="31" font-size="17" font-weight="800" fill="#ef4444" text-anchor="middle">?</text>
</svg>