<svg xmlns="http://www.w3.org/2000/svg" viewBox="0 0 220 160" width="220" height="160" font-family="Manrope, Arial, sans-serif">
  <g transform="rotate(-11 52 78)">
    <rect x="6" y="18" width="92" height="120" rx="12" fill="#0d0d14" stroke="#2b2b36"></rect>
    <g transform="translate(6 18)"><rect x="12.5" y="50" width="7" height="20" fill="#ef4444"></rect><rect x="24.5" y="48" width="7" height="22" fill="#22c55e"></rect><rect x="36.5" y="34" width="7" height="24" fill="#22c55e"></rect><rect x="48.5" y="50" width="7" height="18" fill="#ef4444"></rect><rect x="60.5" y="28" width="7" height="22" fill="#22c55e"></rect><rect x="72.5" y="24" width="7" height="18" fill="#22c55e"></rect></g>
  </g>
  <g transform="rotate(3 104 69)">
    <rect x="56" y="6" width="96" height="126" rx="12" fill="#0d0d14" stroke="#2b2b36"></rect>
    <g transform="translate(56 6)"><rect x="12.5" y="62" width="7" height="24" fill="#22c55e"></rect><rect x="26.5" y="74" width="7" height="20" fill="#ef4444"></rect><rect x="40.5" y="52" width="7" height="24" fill="#22c55e"></rect><rect x="54.5" y="38" width="7" height="22" fill="#22c55e"></rect><rect x="68.5" y="56" width="7" height="16" fill="#ef4444"></rect><rect x="80.5" y="30" width="7" height="20" fill="#22c55e"></rect></g>
  </g>
  <g transform="rotate(13 158 80)">
    <rect x="112" y="20" width="92" height="120" rx="12" fill="#0d0d14" stroke="#2b2b36"></rect>
    <g transform="translate(112 20)"><rect x="12.5" y="28" width="7" height="20" fill="#ef4444"></rect><rect x="24.5" y="46" width="7" height="22" fill="#ef4444"></rect><rect x="36.5" y="62" width="7" height="20" fill="#22c55e"></rect><rect x="48.5" y="66" width="7" height="16" fill="#ef4444"></rect><rect x="60.5" y="74" width="7" height="18" fill="#ef4444"></rect><rect x="72.5" y="80" width="7" height="16" fill="#ef4444"></rect></g>
  </g>
</svg>